<mxfile host="app.diagrams.net" modified="2021-10-31T16:46:31.855Z" agent="5.0 (Windows NT 10.0; Win64; x64) AppleWebKit/537.36 (KHTML, like Gecko) Chrome/94.0.4606.81 Safari/537.36" etag="n8-40-eocYMK9vR9J9le" version="15.6.3" type="github">
  <diagram id="ln0epItrMQBV1sNaz5t-" name="Page-1">
    <mxGraphModel dx="1038" dy="547" grid="1" gridSize="10" guides="1" tooltips="1" connect="1" arrows="1" fold="1" page="1" pageScale="1" pageWidth="827" pageHeight="1169" math="0" shadow="0">
      <root>
        <mxCell id="0" />
        <mxCell id="1" parent="0" />
        <mxCell id="FDTTaYidEwS5aBNCPGy4-1" value="&lt;p style=&quot;line-height: 1.4 ; font-size: 14px&quot;&gt;&lt;b&gt;Event:&lt;/b&gt; Task.Created&lt;/p&gt;&lt;p style=&quot;line-height: 1.4 ; font-size: 14px&quot;&gt;&lt;b&gt;Producer: &lt;/b&gt;Task service&lt;/p&gt;&lt;p style=&quot;line-height: 1.4 ; font-size: 14px&quot;&gt;&lt;b&gt;Consumer: &lt;/b&gt;Accounting service&lt;/p&gt;" style="text;html=1;strokeColor=none;fillColor=none;align=left;verticalAlign=top;whiteSpace=wrap;rounded=0;" vertex="1" parent="1">
          <mxGeometry x="59" y="40" width="350" height="130" as="geometry" />
        </mxCell>
        <mxCell id="FDTTaYidEwS5aBNCPGy4-2" value="&lt;p style=&quot;line-height: 1.4 ; font-size: 14px&quot;&gt;&lt;b&gt;Event:&lt;/b&gt; Task.Assigned&lt;/p&gt;&lt;p style=&quot;line-height: 1.4 ; font-size: 14px&quot;&gt;&lt;b&gt;Producer: &lt;/b&gt;Task service&lt;/p&gt;&lt;p style=&quot;line-height: 1.4 ; font-size: 14px&quot;&gt;&lt;b&gt;Consumer: &lt;/b&gt;Accounting service&lt;/p&gt;" style="text;html=1;strokeColor=none;fillColor=none;align=left;verticalAlign=top;whiteSpace=wrap;rounded=0;" vertex="1" parent="1">
          <mxGeometry x="59" y="200" width="400" height="130" as="geometry" />
        </mxCell>
        <mxCell id="FDTTaYidEwS5aBNCPGy4-3" value="&lt;p style=&quot;line-height: 1.4 ; font-size: 14px&quot;&gt;&lt;b&gt;Event:&lt;/b&gt; Task.Completed&lt;/p&gt;&lt;p style=&quot;line-height: 1.4 ; font-size: 14px&quot;&gt;&lt;b&gt;Producer: &lt;/b&gt;Task service&lt;/p&gt;&lt;p style=&quot;line-height: 1.4 ; font-size: 14px&quot;&gt;&lt;b&gt;Consumer: &lt;/b&gt;Accounting service&lt;/p&gt;" style="text;html=1;strokeColor=none;fillColor=none;align=left;verticalAlign=top;whiteSpace=wrap;rounded=0;" vertex="1" parent="1">
          <mxGeometry x="59" y="360" width="350" height="130" as="geometry" />
        </mxCell>
        <mxCell id="FDTTaYidEwS5aBNCPGy4-4" value="&lt;p style=&quot;line-height: 1.4 ; font-size: 14px&quot;&gt;&lt;b&gt;Event:&lt;/b&gt;&amp;nbsp;Account.MoneyCharged&lt;/p&gt;&lt;p style=&quot;line-height: 1.4 ; font-size: 14px&quot;&gt;&lt;b&gt;Producer: &lt;/b&gt;Accounting service&lt;/p&gt;&lt;p style=&quot;line-height: 1.4 ; font-size: 14px&quot;&gt;&lt;b&gt;Consumer: &lt;/b&gt;Accounting service&lt;/p&gt;" style="text;html=1;strokeColor=none;fillColor=none;align=left;verticalAlign=top;whiteSpace=wrap;rounded=0;" vertex="1" parent="1">
          <mxGeometry x="419" y="40" width="350" height="130" as="geometry" />
        </mxCell>
        <mxCell id="FDTTaYidEwS5aBNCPGy4-5" value="&lt;p style=&quot;line-height: 1.4 ; font-size: 14px&quot;&gt;&lt;b&gt;Event:&lt;/b&gt;&amp;nbsp;Account.MoneyAdded&lt;/p&gt;&lt;p style=&quot;line-height: 1.4 ; font-size: 14px&quot;&gt;&lt;b&gt;Producer: &lt;/b&gt;Accounting service&lt;/p&gt;&lt;p style=&quot;line-height: 1.4 ; font-size: 14px&quot;&gt;&lt;b&gt;Consumer: &lt;/b&gt;Accounting service&lt;/p&gt;" style="text;html=1;strokeColor=none;fillColor=none;align=left;verticalAlign=top;whiteSpace=wrap;rounded=0;" vertex="1" parent="1">
          <mxGeometry x="419" y="200" width="350" height="130" as="geometry" />
        </mxCell>
        <mxCell id="FDTTaYidEwS5aBNCPGy4-6" value="&lt;p style=&quot;line-height: 1.4 ; font-size: 14px&quot;&gt;&lt;b&gt;Event:&lt;/b&gt;&amp;nbsp;Account.BalancePaidOff&lt;/p&gt;&lt;p style=&quot;line-height: 1.4 ; font-size: 14px&quot;&gt;&lt;b&gt;Producer: &lt;/b&gt;Accounting service&lt;/p&gt;&lt;p style=&quot;line-height: 1.4 ; font-size: 14px&quot;&gt;&lt;b&gt;Consumer: &lt;/b&gt;Accounting service&lt;/p&gt;" style="text;html=1;strokeColor=none;fillColor=none;align=left;verticalAlign=top;whiteSpace=wrap;rounded=0;" vertex="1" parent="1">
          <mxGeometry x="419" y="360" width="350" height="130" as="geometry" />
        </mxCell>
      </root>
    </mxGraphModel>
  </diagram>
</mxfile>
